PathFileType	3	(X/Y/Z)	walking_1__view2_aligned.trc
DataRate	CameraRate	NumFrames	NumMarkers	Units	OrigDataRate	OrigDataStartFrame	OrigNumFrames
100.0	100.0	9	19	mm	100.0	764	6105
Frame#	Time	pelvis			neck			head			hip_left			hip_right			knee_left			knee_right			ankle_left			ankle_right			heel_left			heel_right			toe_left			toe_right			shoulder_left			shoulder_right			elbow_left			elbow_right			wrist_left			wrist_right			
		X1	Y1	Z1	X2	Y2	Z2	X3	Y3	Z3	X4	Y4	Z4	X5	Y5	Z5	X6	Y6	Z6	X7	Y7	Z7	X8	Y8	Z8	X9	Y9	Z9	X10	Y10	Z10	X11	Y11	Z11	X12	Y12	Z12	X13	Y13	Z13	X14	Y14	Z14	X15	Y15	Z15	X16	Y16	Z16	X17	Y17	Z17	X18	Y18	Z18	X19	Y19	Z19	
764	7.63000	-43.620419	958.867617	133.556388	-62.282593	1527.864501	207.139443	-71.356891	1605.361443	358.138489	32.514958	956.495897	132.941036	-119.756038	961.239361	134.171704	75.906175	539.064119	279.171027	-132.722535	520.684245	171.836343	76.751421	203.284002	95.225844	-126.492250	106.732611	80.081818	71.582047	176.753392	49.196659	-125.110727	55.934369	42.888662	74.044960	76.047074	219.485030	-139.089897	46.954576	275.257909	116.579683	1485.045193	155.696965	-240.054296	1458.205695	184.730837	209.334753	1196.924848	123.196770	-280.986023	1158.658723	193.485330	267.997980	937.529258	210.773992	-283.167807	905.464742	292.409198
765	7.64000	-43.447462	959.214496	133.442165	-62.191932	1528.364077	206.710825	-70.017059	1605.768909	357.845117	32.694276	956.809966	132.506557	-119.589440	961.619050	134.377737	75.952786	540.219336	284.071803	-132.354934	520.270231	166.118066	76.212987	201.627164	108.997336	-126.032445	106.713205	68.746588	70.804168	174.204156	63.843446	-124.650891	56.056905	30.970109	74.374567	77.665662	235.397802	-138.983080	45.774802	264.157855	116.350250	1486.053245	153.312254	-240.314302	1458.195635	186.212040	209.598738	1198.071492	118.841554	-281.212343	1158.419992	198.446929	271.510287	937.545317	203.018471	-280.826420	906.851313	302.535570
766	7.65000	-43.274504	959.561375	133.327943	-62.101270	1528.863653	206.282208	-68.677228	1606.176374	357.551746	32.873595	957.124034	132.072078	-119.422842	961.998739	134.583769	75.999397	541.374553	288.972579	-131.987333	519.856217	160.399790	75.674553	199.970327	122.768829	-125.572641	106.693799	57.411359	70.026290	171.654921	78.490233	-124.191055	56.179440	19.051555	74.704173	79.284251	251.310575	-138.876263	44.595029	253.057802	116.120818	1487.061297	150.927543	-240.574308	1458.185574	187.693243	209.862723	1199.218136	114.486338	-281.438662	1158.181261	203.408529	275.022595	937.561376	195.262950	-278.485032	908.237883	312.661942
767	7.66000	-43.101546	959.908254	133.213720	-62.010608	1529.363229	205.853590	-67.337396	1606.583840	357.258374	33.052913	957.438102	131.637599	-119.256244	962.378429	134.789802	76.046007	542.529770	293.873355	-131.619732	519.442202	154.681514	75.136119	198.313489	136.540321	-125.112836	106.674393	46.076130	69.248411	169.105685	93.137020	-123.731220	56.301975	7.133001	75.033780	80.902839	267.223347	-138.769447	43.415255	241.957748	115.891385	1488.069349	148.542833	-240.834314	1458.175513	189.174446	210.126707	1200.364779	110.131123	-281.664982	1157.942531	208.370129	278.534902	937.577435	187.507429	-276.143644	909.624454	322.788314
768	7.67000	-42.209061	959.389945	132.862429	-61.059486	1528.846478	205.413980	-65.500814	1606.172385	356.920338	33.959963	957.063408	131.114738	-118.378301	961.716503	134.610087	76.815310	542.840097	296.126117	-131.279358	518.207850	150.267045	75.997869	194.613636	148.993041	-125.498891	108.284206	36.186818	70.092287	164.094231	106.605092	-124.183632	58.654975	-3.192623	75.495751	81.755343	283.000385	-139.223861	43.335830	230.119765	116.680590	1487.558712	146.543782	-240.307267	1457.436054	190.208447	211.060419	1200.046541	106.224901	-281.382097	1157.226027	211.919845	280.919158	936.965535	180.329002	-273.293002	911.050247	330.890723
769	7.68000	-41.316576	958.871637	132.511138	-60.108365	1528.329727	204.974371	-63.664231	1605.760930	356.582301	34.867013	956.688715	130.591876	-117.500357	961.054578	134.430372	77.584612	543.150424	298.378878	-130.938983	516.973497	145.852575	76.859618	190.913783	161.445761	-125.884946	109.894019	26.297507	70.936163	159.082777	120.073164	-124.636045	61.007975	-13.518246	75.957721	82.607847	298.777423	-139.678274	43.256406	218.281781	117.469795	1487.048074	144.544732	-239.780220	1456.696595	191.242447	211.994130	1199.728302	102.318678	-281.099211	1156.509523	215.469560	283.303414	936.353634	173.150574	-270.442359	912.476040	338.993132
770	7.69000	-40.424091	958.353329	132.159847	-59.157243	1527.812976	204.534761	-61.827648	1605.349475	356.244264	35.774063	956.314021	130.069015	-116.622413	960.392652	134.250657	78.353914	543.460750	300.631640	-130.598609	515.739144	141.438105	77.721368	187.213930	173.898481	-126.271000	111.503832	16.408195	71.780038	154.071322	133.541236	-125.088458	63.360975	-23.843869	76.419691	83.460351	314.554461	-140.132688	43.176981	206.443797	118.258999	1486.537437	142.545682	-239.253173	1455.957136	192.276447	212.927842	1199.410063	98.412456	-280.816325	1155.793019	219.019276	285.687670	935.741734	165.972146	-267.591716	913.901833	347.095541
771	7.70000	-39.531606	957.835020	131.808557	-58.206121	1527.296226	204.095152	-59.991065	1604.938020	355.906227	36.681113	955.939327	129.546153	-115.744469	959.730727	134.070943	79.123216	543.771077	302.884401	-130.258235	514.504792	137.023636	78.583118	183.514078	186.351201	-126.657055	113.113645	6.518884	72.623914	149.059868	147.009308	-125.540871	65.713975	-34.169493	76.881662	84.312855	330.331499	-140.587102	43.097557	194.605814	119.048204	1486.026800	140.546631	-238.726126	1455.217677	193.310448	213.861553	1199.091825	94.506234	-280.533439	1155.076515	222.568991	288.071926	935.129834	158.793718	-264.741074	915.327626	355.197950
772	7.71000	-38.639121	957.316712	131.457266	-57.254999	1526.779475	203.655543	-58.154482	1604.526565	355.568190	37.588163	955.564634	129.023292	-114.866526	959.068802	133.891228	79.892519	544.081404	305.137163	-129.917860	513.270439	132.609166	79.444867	179.814225	198.803921	-127.043109	114.723458	-3.370428	73.467790	144.048414	160.477380	-125.993284	68.066976	-44.495116	77.343632	85.165359	346.108537	-141.041516	43.018132	182.767830	119.837409	1485.516163	138.547581	-238.199079	1454.478218	194.344448	214.795265	1198.773586	90.600012	-280.250553	1154.360012	226.118707	290.456182	934.517934	151.615291	-261.890431	916.753418	363.300359
